<svg width="79" height="32" viewBox="0 0 79 32" fill="none" xmlns="http://www.w3.org/2000/svg">
<rect width="79" height="32" rx="8" fill="#DF4244"/>
<path d="M26.8 10.352C27.5467 10.352 28.1867 10.4853 28.72 10.752C29.2533 11.008 29.6533 11.3653 29.92 11.824C30.1973 12.2827 30.336 12.7947 30.336 13.36C30.336 14.0747 30.1333 14.672 29.728 15.152C29.3333 15.6213 28.7733 15.904 28.048 16V16.08C28.8267 16.304 29.4347 16.64 29.872 17.088C30.32 17.5253 30.544 18.1333 30.544 18.912C30.544 19.8613 30.2293 20.6347 29.6 21.232C28.9707 21.8187 28.0693 22.112 26.896 22.112C25.6907 22.112 24.72 21.808 23.984 21.2C23.248 20.5813 22.8267 19.6693 22.72 18.464H24.528C24.592 19.104 24.8213 19.616 25.216 20C25.6107 20.3733 26.144 20.56 26.816 20.56C27.4453 20.56 27.9253 20.3947 28.256 20.064C28.5973 19.7333 28.768 19.3067 28.768 18.784C28.768 18.1547 28.5227 17.6747 28.032 17.344C27.552 17.0133 26.8533 16.848 25.936 16.848H25.504V15.344H25.936C27.6747 15.3653 28.544 14.7733 28.544 13.568C28.544 13.0453 28.384 12.6347 28.064 12.336C27.744 12.0373 27.3067 11.888 26.752 11.888C26.1973 11.888 25.7333 12.0587 25.36 12.4C24.9867 12.7307 24.7627 13.216 24.688 13.856H22.896C22.9707 12.7467 23.344 11.888 24.016 11.28C24.688 10.6613 25.616 10.352 26.8 10.352ZM32.332 16.272C32.332 18.0747 32.652 19.488 33.292 20.512C33.932 21.5253 34.9987 22.032 36.492 22.032C37.9853 22.032 39.052 21.52 39.692 20.496C40.332 19.472 40.652 18.064 40.652 16.272C40.652 14.4907 40.332 13.0933 39.692 12.08C39.052 11.056 37.9853 10.544 36.492 10.544C34.9987 10.544 33.932 11.0507 33.292 12.064C32.652 13.0773 32.332 14.48 32.332 16.272ZM38.828 16.272C38.828 17.5733 38.668 18.5707 38.348 19.264C38.028 19.9573 37.4093 20.304 36.492 20.304C35.564 20.304 34.94 19.9573 34.62 19.264C34.3 18.5707 34.14 17.5733 34.14 16.272C34.14 14.9813 34.3 13.9947 34.62 13.312C34.94 12.6293 35.564 12.288 36.492 12.288C37.4093 12.288 38.028 12.6347 38.348 13.328C38.668 14.0107 38.828 14.992 38.828 16.272ZM48.1468 10.544C48.8614 10.544 49.4428 10.768 49.8908 11.216C50.3388 11.6533 50.5628 12.2507 50.5628 13.008C50.5628 13.7653 50.3388 14.3627 49.8908 14.8C49.4428 15.2373 48.8614 15.456 48.1468 15.456C47.4321 15.456 46.8454 15.2373 46.3868 14.8C45.9388 14.3627 45.7148 13.7653 45.7148 13.008C45.7148 12.2507 45.9388 11.6533 46.3868 11.216C46.8454 10.768 47.4321 10.544 48.1468 10.544ZM54.9148 10.688L48.5308 22H46.7388L53.1388 10.688H54.9148ZM46.9628 13.008C46.9628 13.4133 47.0694 13.7387 47.2828 13.984C47.4961 14.2187 47.7788 14.336 48.1308 14.336C48.4828 14.336 48.7654 14.2133 48.9788 13.968C49.2028 13.7227 49.3148 13.4027 49.3148 13.008C49.3148 12.6027 49.2028 12.2773 48.9788 12.032C48.7654 11.7867 48.4828 11.664 48.1308 11.664C47.7788 11.664 47.4961 11.7867 47.2828 12.032C47.0694 12.2773 46.9628 12.6027 46.9628 13.008ZM53.5228 17.232C54.2374 17.232 54.8188 17.4507 55.2668 17.888C55.7254 18.3253 55.9548 18.9227 55.9548 19.68C55.9548 20.4373 55.7254 21.04 55.2668 21.488C54.8188 21.9253 54.2374 22.144 53.5228 22.144C52.8188 22.144 52.2374 21.9253 51.7788 21.488C51.3308 21.04 51.1068 20.4373 51.1068 19.68C51.1068 18.9333 51.3308 18.3413 51.7788 17.904C52.2374 17.456 52.8188 17.232 53.5228 17.232ZM52.3548 19.68C52.3548 20.0853 52.4614 20.4107 52.6748 20.656C52.8881 20.9013 53.1708 21.024 53.5228 21.024C53.8748 21.024 54.1574 20.9013 54.3708 20.656C54.5948 20.4107 54.7068 20.0853 54.7068 19.68C54.7068 19.2853 54.5948 18.9653 54.3708 18.72C54.1574 18.4747 53.8748 18.352 53.5228 18.352C53.1708 18.352 52.8881 18.4747 52.6748 18.72C52.4614 18.9653 52.3548 19.2853 52.3548 19.68Z" fill="white"/>
</svg>
